<svg width="24" height="24" viewBox="0 0 24 24" xmlns="http://www.w3.org/2000/svg">
  <path fill="#424242" d="M5.5 4.5c-.83 0-1.5.67-1.5 1.5v12c0 .83.67 1.5 1.5 1.5h2.75a.75.75 0 0 0 0-1.5H5.5v-5.25h2.75a.75.75 0 0 0 0-1.5H5.5V6h2.75a.75.75 0 0 0 0-1.5H5.5Zm6.93 1.24a.75.75 0 0 0-.65.76v2.19h-.74a.75.75 0 0 0-.62 1.17l2.96 4.29a.75.75 0 0 0 1.24 0l2.96-4.29a.75.75 0 0 0-.62-1.17h-.74V6.5a.75.75 0 0 0-.65-.76 6.65 6.65 0 1 1-4.4 10.58.75.75 0 1 0-1.14.97 8.15 8.15 0 1 0 5.4-13.55c-.8-.07-1.6-.07-2.4 0Z"/>
</svg>
