<svg width="24" height="24" viewBox="0 0 24 24" xmlns="http://www.w3.org/2000/svg">
  <path fill="#424242" d="M4 7.25A1.25 1.25 0 1 1 6.5 7.25 1.25 1.25 0 0 1 4 7.25Zm6.75 0A1.25 1.25 0 1 1 13.25 7.25 1.25 1.25 0 0 1 10.75 7.25Zm6.75 0A1.25 1.25 0 1 1 20 7.25 1.25 1.25 0 0 1 17.5 7.25ZM5.4 8.2a.75.75 0 0 1 1.05-.16l4.67 3.36 4.7-3.36a.75.75 0 0 1 .87 1.22l-5.14 3.67a.75.75 0 0 1-.87 0L5.56 9.26A.75.75 0 0 1 5.4 8.2Zm-1.65 7.48c0-.41.34-.75.75-.75h2.05l1.44-2.38a.75.75 0 0 1 1.3.05l1.42 2.8 1.87-3.74a.75.75 0 0 1 1.33-.02l1.23 2.29h3.86a.75.75 0 0 1 0 1.5h-4.31a.75.75 0 0 1-.66-.4l-.78-1.45-1.9 3.8a.75.75 0 0 1-1.34-.02l-1.47-2.9-.94 1.55a.75.75 0 0 1-.64.37H4.5a.75.75 0 0 1-.75-.75Z"/>
</svg>
