<svg width="24" height="24" viewBox="0 0 24 24" xmlns="http://www.w3.org/2000/svg">
  <path
    fill="#424242"
    d="M12 2.5c-4.76 0-8.62 3.86-8.62 8.62s3.86 8.62 8.62 8.62c3.95 0 7.29-2.65 8.35-6.28a.75.75 0 0 0-1.44-.42A7.12 7.12 0 1 1 12 4c1.78 0 3.42.65 4.69 1.73l-1.78.02a.75.75 0 1 0 .01 1.5h3.66c.41 0 .75-.34.75-.75V2.84a.75.75 0 0 0-1.5 0v1.87A8.56 8.56 0 0 0 12 2.5Zm-.75 4.32c0-.41.34-.75.75-.75s.75.34.75.75v4.01l2.85 1.64a.75.75 0 1 1-.75 1.3l-3.22-1.86a.75.75 0 0 1-.38-.65V6.82Z"
  />
</svg>
